<svg width="64" height="13" viewBox="0 0 64 13" fill="none" xmlns="http://www.w3.org/2000/svg">
<path d="M7.112 11.608L5.72 13H1.768L0.392 11.608V3.336L1.768 1.944H5.72L7.112 3.336V4.488L5.528 6.088V3.336H1.976V11.608H5.528V10.44L7.112 8.856V11.608ZM14.8346 11.608L13.4586 13H10.4986L9.12263 11.608V6.088L10.4986 4.696H13.4586L14.8346 6.088V11.608ZM13.2666 11.608V6.088H10.7066V11.608H13.2666ZM23.0065 13H21.4385V11.816L20.2865 13H18.6705L17.2945 11.608V6.088L18.6705 4.696H21.4385V1.928L23.0065 0.36V13ZM21.4385 11.608V4.888L20.2225 6.088H18.8785V11.608H21.4385ZM31.3503 13H27.0143L25.6383 11.608V6.088L27.0143 4.696H29.9743L31.3503 6.088V8.856L29.9743 10.232H27.4143L28.8223 8.856H29.7823V6.088H27.2223V11.608H31.3503V13ZM41.4831 12.984H38.4271L35.7391 3.352H34.3791L35.3711 4.296V12.984H33.7871V1.928H36.8591L39.5151 11.592H40.8911L39.8991 10.584V1.928H41.4831V12.984ZM50.0065 11.608L48.6305 13H45.6705L44.2945 11.608V6.088L45.6705 4.696H48.6305L50.0065 6.088V11.608ZM48.4385 11.608V6.088H45.8785V11.608H48.4385ZM56.6744 4.696L55.2824 6.088H54.2904V11.608H56.2584V13H54.0984L52.7064 11.608V6.088H50.7384L52.1304 4.696H52.7064V3.528L54.2904 1.944V4.696H56.6744ZM63.4128 13H59.0768L57.7008 11.608V6.088L59.0768 4.696H62.0368L63.4128 6.088V8.856L62.0368 10.232H59.4768L60.8848 8.856H61.8448V6.088H59.2848V11.608H63.4128V13Z" fill="url(#paint0_linear_0_3)"/>
<defs>
<linearGradient id="paint0_linear_0_3" x1="65.4444" y1="4.35294" x2="-1" y2="4.35292" gradientUnits="userSpaceOnUse">
<stop offset="0.0416667" stop-color="#E4004F"/>
<stop offset="0.53125" stop-color="#B8257A"/>
<stop offset="1" stop-color="#72288C"/>
</linearGradient>
</defs>
</svg>
