<svg xmlns="http://www.w3.org/2000/svg" xmlns:xlink="http://www.w3.org/1999/xlink" width="500" zoomAndPan="magnify" viewBox="0 0 375 374.999991" height="500" preserveAspectRatio="xMidYMid meet" version="1.0"><defs><clipPath id="84f6a18dd9"><path d="M 167.222656 62.554688 L 196.472656 62.554688 L 196.472656 316.804688 L 167.222656 316.804688 Z M 167.222656 62.554688 " clip-rule="nonzero"/></clipPath><clipPath id="466309db03"><path d="M 170.316406 48.1875 L 199.566406 48.1875 L 199.566406 314.4375 L 170.316406 314.4375 Z M 170.316406 48.1875 " clip-rule="nonzero"/></clipPath><clipPath id="54e38e001f"><path d="M 148 174 L 221 174 L 221 255 L 148 255 Z M 148 174 " clip-rule="nonzero"/></clipPath><clipPath id="6e1cfd8567"><path d="M 148.050781 239.171875 L 202.980469 174.632812 L 220.6875 189.703125 L 165.757812 254.242188 Z M 148.050781 239.171875 " clip-rule="nonzero"/></clipPath><clipPath id="6cabc9a55d"><path d="M 215.097656 0 L 283.347656 0 L 283.347656 104.417969 L 215.097656 104.417969 Z M 215.097656 0 " clip-rule="nonzero"/></clipPath><clipPath id="3fc1231176"><path d="M 234 35 L 365 35 L 365 181 L 234 181 Z M 234 35 " clip-rule="nonzero"/></clipPath><clipPath id="5febfdaf35"><path d="M 256.828125 180.089844 L 234.636719 161.039062 L 342.589844 35.269531 L 364.785156 54.320312 Z M 256.828125 180.089844 " clip-rule="nonzero"/></clipPath><clipPath id="a1dbe04cb7"><path d="M 231 183 L 348 183 L 348 317 L 231 317 Z M 231 183 " clip-rule="nonzero"/></clipPath><clipPath id="6da1bbda46"><path d="M 231.875 201.96875 L 254.589844 183.539062 L 347.683594 298.269531 L 324.972656 316.699219 Z M 231.875 201.96875 " clip-rule="nonzero"/></clipPath><clipPath id="3249306199"><path d="M 225.902344 25.9375 L 255.152344 25.9375 L 255.152344 313.9375 L 225.902344 313.9375 Z M 225.902344 25.9375 " clip-rule="nonzero"/></clipPath><clipPath id="3ebf8cb6f5"><path d="M 228.875 138.238281 L 258.125 138.238281 L 258.125 352.738281 L 228.875 352.738281 Z M 228.875 138.238281 " clip-rule="nonzero"/></clipPath><clipPath id="289849302c"><path d="M 234 181 L 351 181 L 351 315 L 234 315 Z M 234 181 " clip-rule="nonzero"/></clipPath><clipPath id="d58bdb962d"><path d="M 234.617188 199.671875 L 257.328125 181.242188 L 350.425781 295.972656 L 327.710938 314.402344 Z M 234.617188 199.671875 " clip-rule="nonzero"/></clipPath><clipPath id="f527123d5f"><path d="M 234 40 L 365 40 L 365 186 L 234 186 Z M 234 40 " clip-rule="nonzero"/></clipPath><clipPath id="f19fc1b308"><path d="M 256.828125 185.808594 L 234.636719 166.757812 L 342.589844 40.984375 L 364.785156 60.039062 Z M 256.828125 185.808594 " clip-rule="nonzero"/></clipPath><clipPath id="5c200ef97b"><path d="M 15 37 L 145 37 L 145 188 L 15 188 Z M 15 37 " clip-rule="nonzero"/></clipPath><clipPath id="86f8da67cf"><path d="M 144.894531 168.949219 L 122.179688 187.378906 L 15.378906 55.757812 L 38.09375 37.328125 Z M 144.894531 168.949219 " clip-rule="nonzero"/></clipPath><clipPath id="4c3c336527"><path d="M 112.484375 41.085938 L 141.734375 41.085938 L 141.734375 307.335938 L 112.484375 307.335938 Z M 112.484375 41.085938 " clip-rule="nonzero"/></clipPath><clipPath id="9881add92a"><path d="M 23 42 L 140 42 L 140 176 L 23 176 Z M 23 42 " clip-rule="nonzero"/></clipPath><clipPath id="37c22b777b"><path d="M 139.691406 156.941406 L 116.980469 175.375 L 23.882812 60.644531 L 46.597656 42.210938 Z M 139.691406 156.941406 " clip-rule="nonzero"/></clipPath><clipPath id="f257ca8380"><path d="M 115.644531 62.871094 L 144.894531 62.871094 L 144.894531 203.871094 L 115.644531 203.871094 Z M 115.644531 62.871094 " clip-rule="nonzero"/></clipPath><clipPath id="589a713995"><path d="M 0 174 L 139 174 L 139 330 L 0 330 Z M 0 174 " clip-rule="nonzero"/></clipPath><clipPath id="1348e8a5af"><path d="M 116.359375 174.648438 L 138.554688 193.699219 L 22.296875 329.148438 L 0.101562 310.09375 Z M 116.359375 174.648438 " clip-rule="nonzero"/></clipPath><clipPath id="3ae1853771"><path d="M 1 177 L 140 177 L 140 333 L 1 333 Z M 1 177 " clip-rule="nonzero"/></clipPath><clipPath id="9a1e5d8cca"><path d="M 117.480469 177.847656 L 139.675781 196.898438 L 23.414062 332.347656 L 1.21875 313.296875 Z M 117.480469 177.847656 " clip-rule="nonzero"/></clipPath><clipPath id="26d78c48f4"><path d="M 0 0 L 375 0 L 375 63.285156 L 0 63.285156 Z M 0 0 " clip-rule="nonzero"/></clipPath><clipPath id="cc8529fa4f"><path d="M 148 107 L 220 107 L 220 186 L 148 186 Z M 148 107 " clip-rule="nonzero"/></clipPath><clipPath id="6d3ce4a60d"><path d="M 148.054688 171.082031 L 202.074219 107.738281 L 219.195312 122.339844 L 165.171875 185.683594 Z M 148.054688 171.082031 " clip-rule="nonzero"/></clipPath><clipPath id="a603c2f2dd"><path d="M 228.875 63.023438 L 258.125 63.023438 L 258.125 211.523438 L 228.875 211.523438 Z M 228.875 63.023438 " clip-rule="nonzero"/></clipPath><clipPath id="331b06e27b"><path d="M 115.621094 138.238281 L 144.871094 138.238281 L 144.871094 307.738281 L 115.621094 307.738281 Z M 115.621094 138.238281 " clip-rule="nonzero"/></clipPath><clipPath id="9cb0df330a"><path d="M 0 289.453125 L 375 289.453125 L 375 375 L 0 375 Z M 0 289.453125 " clip-rule="nonzero"/></clipPath></defs><rect x="-37.5" width="450" fill="#ffffff" y="-37.499999" height="449.999989" fill-opacity="1"/><rect x="-37.5" width="450" fill="#ffffff" y="-37.499999" height="449.999989" fill-opacity="1"/><rect x="-37.5" width="450" fill="#f4f4f4" y="-37.499999" height="449.999989" fill-opacity="1"/><g clip-path="url(#84f6a18dd9)"><path fill="#8c52ff" d="M 167.222656 62.574219 L 196.472656 62.574219 L 196.472656 316.785156 L 167.222656 316.785156 L 167.222656 62.574219 " fill-opacity="1" fill-rule="nonzero"/></g><g clip-path="url(#466309db03)"><path fill="#000000" d="M 170.316406 48.210938 L 199.566406 48.210938 L 199.566406 314.417969 L 170.316406 314.417969 L 170.316406 48.210938 " fill-opacity="1" fill-rule="nonzero"/></g><g clip-path="url(#54e38e001f)"><g clip-path="url(#6e1cfd8567)"><path fill="#f4f4f4" d="M 148.050781 239.175781 L 202.980469 174.632812 L 220.683594 189.703125 L 165.757812 254.242188 L 148.050781 239.175781 " fill-opacity="1" fill-rule="nonzero"/></g></g><g clip-path="url(#6cabc9a55d)"><path fill="#f4f4f4" d="M 215.097656 -95.082031 L 283.347656 -95.082031 L 283.347656 104.417969 L 215.097656 104.417969 L 215.097656 -95.082031 " fill-opacity="1" fill-rule="nonzero"/></g><g clip-path="url(#3fc1231176)"><g clip-path="url(#5febfdaf35)"><path fill="#ff5757" d="M 256.835938 180.085938 L 234.640625 161.03125 L 342.585938 35.273438 L 364.78125 54.328125 L 256.835938 180.085938 " fill-opacity="1" fill-rule="nonzero"/></g></g><g clip-path="url(#a1dbe04cb7)"><g clip-path="url(#6da1bbda46)"><path fill="#ff5757" d="M 231.882812 201.976562 L 254.59375 183.546875 L 347.679688 298.261719 L 324.96875 316.695312 L 231.882812 201.976562 " fill-opacity="1" fill-rule="nonzero"/></g></g><g clip-path="url(#3249306199)"><path fill="#cb6ce6" d="M 225.902344 25.960938 L 255.152344 25.960938 L 255.152344 313.914062 L 225.902344 313.914062 L 225.902344 25.960938 " fill-opacity="1" fill-rule="nonzero"/></g><g clip-path="url(#3ebf8cb6f5)"><path fill="#000000" d="M 228.875 138.253906 L 258.125 138.253906 L 258.125 352.722656 L 228.875 352.722656 L 228.875 138.253906 " fill-opacity="1" fill-rule="nonzero"/></g><g clip-path="url(#289849302c)"><g clip-path="url(#d58bdb962d)"><path fill="#000000" d="M 234.621094 199.679688 L 257.335938 181.25 L 350.421875 295.96875 L 327.707031 314.398438 L 234.621094 199.679688 " fill-opacity="1" fill-rule="nonzero"/></g></g><g clip-path="url(#f527123d5f)"><g clip-path="url(#f19fc1b308)"><path fill="#000000" d="M 256.835938 185.800781 L 234.640625 166.75 L 342.585938 40.992188 L 364.78125 60.042969 L 256.835938 185.800781 " fill-opacity="1" fill-rule="nonzero"/></g></g><g clip-path="url(#5c200ef97b)"><g clip-path="url(#86f8da67cf)"><path fill="#004aad" d="M 144.886719 168.9375 L 122.171875 187.367188 L 15.386719 55.769531 L 38.101562 37.339844 L 144.886719 168.9375 " fill-opacity="1" fill-rule="nonzero"/></g></g><g clip-path="url(#4c3c336527)"><path fill="#5271ff" d="M 112.484375 41.105469 L 141.734375 41.105469 L 141.734375 307.320312 L 112.484375 307.320312 L 112.484375 41.105469 " fill-opacity="1" fill-rule="nonzero"/></g><g clip-path="url(#9881add92a)"><g clip-path="url(#37c22b777b)"><path fill="#000000" d="M 139.6875 156.9375 L 116.972656 175.367188 L 23.886719 60.648438 L 46.601562 42.21875 L 139.6875 156.9375 " fill-opacity="1" fill-rule="nonzero"/></g></g><g clip-path="url(#f257ca8380)"><path fill="#000000" d="M 144.894531 203.859375 L 115.644531 203.859375 L 115.644531 62.882812 L 144.894531 62.882812 L 144.894531 203.859375 " fill-opacity="1" fill-rule="nonzero"/></g><g clip-path="url(#589a713995)"><g clip-path="url(#1348e8a5af)"><path fill="#004aad" d="M 116.351562 174.660156 L 138.546875 193.710938 L 22.304688 329.136719 L 0.109375 310.085938 L 116.351562 174.660156 " fill-opacity="1" fill-rule="nonzero"/></g></g><g clip-path="url(#3ae1853771)"><g clip-path="url(#9a1e5d8cca)"><path fill="#000000" d="M 117.472656 177.859375 L 139.667969 196.910156 L 23.425781 332.335938 L 1.230469 313.285156 L 117.472656 177.859375 " fill-opacity="1" fill-rule="nonzero"/></g></g><g clip-path="url(#26d78c48f4)"><path fill="#f4f4f4" d="M -83.613281 -136.214844 L 401.628906 -136.214844 L 401.628906 63.285156 L -83.613281 63.285156 L -83.613281 -136.214844 " fill-opacity="1" fill-rule="nonzero"/></g><g clip-path="url(#cc8529fa4f)"><g clip-path="url(#6d3ce4a60d)"><path fill="#f4f4f4" d="M 148.058594 171.078125 L 202.070312 107.742188 L 219.191406 122.34375 L 165.175781 185.679688 L 148.058594 171.078125 " fill-opacity="1" fill-rule="nonzero"/></g></g><g clip-path="url(#a603c2f2dd)"><path fill="#000000" d="M 228.875 63.03125 L 258.125 63.03125 L 258.125 211.511719 L 228.875 211.511719 L 228.875 63.03125 " fill-opacity="1" fill-rule="nonzero"/></g><g clip-path="url(#331b06e27b)"><path fill="#000000" d="M 115.621094 138.25 L 144.871094 138.25 L 144.871094 307.726562 L 115.621094 307.726562 L 115.621094 138.25 " fill-opacity="1" fill-rule="nonzero"/></g><g clip-path="url(#9cb0df330a)"><path fill="#f4f4f4" d="M 430.5 488.953125 L -81.738281 488.953125 L -81.738281 289.453125 L 430.5 289.453125 L 430.5 488.953125 " fill-opacity="1" fill-rule="nonzero"/></g></svg>